<?xml version="1.0" standalone="no"?><!DOCTYPE svg PUBLIC "-//W3C//DTD SVG 1.1//EN" "http://www.w3.org/Graphics/SVG/1.1/DTD/svg11.dtd"><svg t="1663053311301" class="icon" viewBox="0 0 1024 1024" version="1.1" xmlns="http://www.w3.org/2000/svg" p-id="4608" xmlns:xlink="http://www.w3.org/1999/xlink" width="200" height="200"><path d="M512 102.4c-226.23232 0-409.6 183.3984-409.6 409.6s183.36768 409.6 409.6 409.6c226.2016 0 409.6-183.3984 409.6-409.6S738.2016 102.4 512 102.4z m0 750.92992c-188.52864 0-341.32992-152.832-341.32992-341.32992S323.47136 170.67008 512 170.67008c188.49792 0 341.32992 152.832 341.32992 341.32992S700.49792 853.32992 512 853.32992z" p-id="4609" fill="#707070"></path><path d="M580.27008 512a68.27008 68.27008 0 1 1-136.54016 0 68.27008 68.27008 0 0 1 136.54016 0zM375.47008 512a68.27008 68.27008 0 1 1-136.54016 0 68.27008 68.27008 0 0 1 136.54016 0zM785.07008 512a68.27008 68.27008 0 1 1-136.54016 0 68.27008 68.27008 0 0 1 136.54016 0z" p-id="4610" fill="#707070"></path></svg>